<svg width="24" height="24" viewBox="0 0 24 24" fill="none" xmlns="http://www.w3.org/2000/svg">
<path d="M15 23V23C17.2091 23 19 21.2091 19 19V19H16C15.4477 19 15 19.4477 15 20V23Z" fill="black"/>
<path d="M15 23V23C17.2091 23 19 21.2091 19 19V19M15 23H7C5.89543 23 5 22.1046 5 21V7C5 5.89543 5.89543 5 7 5H8M15 23V20C15 19.4477 15.4477 19 16 19H19M19 19V7C19 5.89543 18.1046 5 17 5H12M14 4V3.5C14 2.11929 12.8807 1 11.5 1V1C10.1193 1 9 2.11929 9 3.5V9C9 10.1046 9.89543 11 11 11V11C12.1046 11 13 10.1046 13 9V8" stroke="black" stroke-width="2" stroke-linecap="round" stroke-linejoin="round"/>
</svg>
