<svg width="24" height="24" viewBox="0 0 24 24" fill="none" xmlns="http://www.w3.org/2000/svg">
<path d="M21 9.61111C21 11.6055 19.433 13.2222 17.5 13.2222C15.567 13.2222 14 11.6055 14 9.61111C14 7.61675 15.567 6 17.5 6C19.433 6 21 7.61675 21 9.61111ZM21 9.61111C21 12.9052 20.3 16.1111 16.8 19" stroke="black" stroke-width="2" stroke-linecap="round" stroke-linejoin="round"/>
<path d="M10 9.61111C10 11.6055 8.433 13.2222 6.5 13.2222C4.567 13.2222 3 11.6055 3 9.61111C3 7.61675 4.567 6 6.5 6C8.433 6 10 7.61675 10 9.61111ZM10 9.61111C10 12.9052 9.3 16.1111 5.8 19" stroke="black" stroke-width="2" stroke-linecap="round" stroke-linejoin="round"/>
</svg>
