<svg width="24" height="24" viewBox="0 0 24 24" fill="none" xmlns="http://www.w3.org/2000/svg">
<path d="M8 4H7V5H8M8 4V5M8 4H12C14.2091 4 16 5.79086 16 8C16 10.2091 14.2091 12 12 12M8 5V19M8 20H7V19H8M8 20V19M8 20H12.5C14.9853 20 17 17.9853 17 15.5C17 13.0147 14.9853 11 12.5 11H12M12 12H9M12 12H12.5C14.433 12 16 13.567 16 15.5C16 17.433 14.433 19 12.5 19H9V12M12 11C13.6569 11 15 9.65685 15 8C15 6.34315 13.6569 5 12 5H9V11M12 11H9M9 12V11" stroke="black" stroke-width="2" stroke-linecap="round" stroke-linejoin="round"/>
</svg>
