<svg width="24" height="24" viewBox="0 0 24 24" fill="none" xmlns="http://www.w3.org/2000/svg">
<path d="M5 5V5C3.89543 5 3 5.89543 3 7V9M5 5V4C5 3.44772 5.44772 3 6 3V3C6.55228 3 7 3.44772 7 4V5M5 5H7M7 5H17M19 5V5C20.1046 5 21 5.89543 21 7V9M19 5V4C19 3.44772 18.5523 3 18 3V3C17.4477 3 17 3.44772 17 4V5M19 5H17M3 9V18C3 19.6569 4.34315 21 6 21H18C19.6569 21 21 19.6569 21 18V9M3 9H21" stroke="black" stroke-width="2" stroke-linecap="round" stroke-linejoin="round"/>
<rect x="14" y="14" width="4" height="4" rx="1" fill="black"/>
</svg>
