<svg width="24" height="24" viewBox="0 0 24 24" fill="none" xmlns="http://www.w3.org/2000/svg">
<path d="M6 9.87324L3.61204 12.2612C2.79599 13.0773 2.79599 14.4003 3.61204 15.2164L8.78361 20.388C9.59966 21.204 10.9227 21.204 11.7388 20.388L18.388 13.7388C19.204 12.9227 19.204 11.5997 18.388 10.7836L13.2164 5.61204C12.4003 4.79599 11.0773 4.79599 10.2612 5.61204L6 9.87324ZM6 9.87324V5C6 3.89543 6.89543 3 8 3V3C9.10457 3 10 3.89543 10 5V10" stroke="black" stroke-width="2" stroke-linecap="round" stroke-linejoin="round"/>
<path d="M16 15H4L10 21L16 15Z" fill="black"/>
<path d="M22 20C22 21.1046 21.1046 22 20 22C18.8954 22 18 21.1046 18 20C18 18.8954 20 16 20 16C20 16 22 18.8954 22 20Z" fill="black"/>
</svg>
