<svg width="24" height="24" viewBox="0 0 24 24" fill="none" xmlns="http://www.w3.org/2000/svg">
<path d="M5 7V7C5 4.79086 6.79086 3 9 3H19C21.2091 3 23 4.79086 23 7V16C23 16.5523 22.5523 17 22 17H19" stroke="black" stroke-width="2" stroke-linecap="round" stroke-linejoin="round"/>
<path d="M5 12H15M5 16H10M1 11V20C1 20.5523 1.44772 21 2 21H15C17.2091 21 19 19.2091 19 17V11C19 8.79086 17.2091 7 15 7H5C2.79086 7 1 8.79086 1 11Z" stroke="black" stroke-width="2" stroke-linecap="round" stroke-linejoin="round"/>
</svg>
