<svg width="24" height="24" viewBox="0 0 24 24" fill="none" xmlns="http://www.w3.org/2000/svg">
<path d="M6 11H12M6 15H12M6 19H9M4 23H14C15.1046 23 16 22.1046 16 21V9C16 7.89543 15.1046 7 14 7H4C2.89543 7 2 7.89543 2 9V21C2 22.1046 2.89543 23 4 23Z" stroke="black" stroke-width="2" stroke-linecap="round" stroke-linejoin="round"/>
<path d="M5 7V6C5 4.89543 5.89543 4 7 4H17C18.1046 4 19 4.89543 19 6V18C19 19.1046 18.1046 20 17 20H16" stroke="black" stroke-width="2" stroke-linecap="round" stroke-linejoin="round"/>
<path d="M8 4V3C8 1.89543 8.89543 1 10 1H20C21.1046 1 22 1.89543 22 3V15C22 16.1046 21.1046 17 20 17H19" stroke="black" stroke-width="2" stroke-linecap="round" stroke-linejoin="round"/>
</svg>
