<svg width="24" height="24" viewBox="0 0 24 24" fill="none" xmlns="http://www.w3.org/2000/svg">
<path d="M9 7H15M9 11H15M19 13V4C19 2.89543 18.1046 2 17 2H7C5.89543 2 5 2.89543 5 4V18C5 19.1046 5.89543 20 7 20M9 15H10" stroke="black" stroke-width="2" stroke-linecap="round" stroke-linejoin="round"/>
<path d="M14 20H20M15 23H14C12.3431 23 11 21.6569 11 20V20C11 18.3431 12.3431 17 14 17H15M19 23H20C21.6569 23 23 21.6569 23 20V20C23 18.3431 21.6569 17 20 17H19" stroke="black" stroke-width="2" stroke-linecap="round" stroke-linejoin="round"/>
</svg>
