<svg width="24" height="24" viewBox="0 0 24 24" fill="none" xmlns="http://www.w3.org/2000/svg">
<path d="M9 8H15M9 12H15M9 16H12M19 11V5C19 3.89543 18.1046 3 17 3H7C5.89543 3 5 3.89543 5 5V19C5 20.1046 5.89543 21 7 21H12" stroke="black" stroke-width="2" stroke-linecap="round" stroke-linejoin="round"/>
<path d="M22 20V18C22 16.3431 20.6569 15 19 15V15C17.3431 15 16 16.3431 16 18V21.5C16 22.3284 16.6716 23 17.5 23V23C18.3284 23 19 22.3284 19 21.5V18" stroke="black" stroke-width="2" stroke-linecap="round" stroke-linejoin="round"/>
</svg>
