<svg width="24" height="24" viewBox="0 0 24 24" fill="none" xmlns="http://www.w3.org/2000/svg">
<path d="M12 20V12M12 20L10 18M12 20L14 18M7 16.0001L5.32581 16C4.54073 16 3.76209 15.7095 3.30499 15.0712C2.48352 13.9241 2 12.5185 2 11C2 7.13401 5.13401 4 9 4C11.8892 4 14.3696 5.75042 15.4386 8.24864C15.9299 8.08728 16.4547 8 17 8C19.7614 8 22 10.2386 22 13C22 13.5918 21.8972 14.1596 21.7085 14.6864C21.3903 15.5746 20.4449 16.0005 19.5015 16.0004L17 16.0003" stroke="black" stroke-width="2" stroke-linecap="round" stroke-linejoin="round"/>
</svg>
