<svg width="24" height="24" viewBox="0 0 24 24" fill="none" xmlns="http://www.w3.org/2000/svg">
<path d="M21 3H19M21 3V5M21 3V1M21 3H23M15 3H9C7.89543 3 7 3.89543 7 5V7M21 9V15C21 16.1046 20.1046 17 19 17H17" stroke="black" stroke-width="2" stroke-linecap="round" stroke-linejoin="round"/>
<path d="M5 21H15C16.1046 21 17 20.1046 17 19V9C17 7.89543 16.1046 7 15 7H5C3.89543 7 3 7.89543 3 9V19C3 20.1046 3.89543 21 5 21Z" stroke="black" stroke-width="2" stroke-linecap="round" stroke-linejoin="round"/>
</svg>
