<svg width="24" height="24" viewBox="0 0 24 24" fill="none" xmlns="http://www.w3.org/2000/svg">
<path d="M2 14V18C2 19.1046 2.89543 20 4 20H20C20.7403 20 21.3866 19.5978 21.7324 19M2 14V6C2 4.89543 2.89543 4 4 4H8.92963C9.59834 4 10.2228 4.3342 10.5937 4.8906L11.4063 6.1094C11.7772 6.6658 12.4017 7 13.0704 7H20C21.1046 7 22 7.89543 22 9M2 14H3M5 14V13M5 14H7M5 14H3M7 14V15M7 14H9M9 14V13M9 14H11M11 14V15M11 14H13M13 14V13M13 14H15M15 14V15M15 14H17M17 14L19.4962 12.3359C19.8247 12.1169 20.2107 12 20.6056 12H21C21.3643 12 21.7058 12.0974 22 12.2676C22.5978 12.6134 23 13.2597 23 14C23 14.7403 22.5978 15.3866 22 15.7324C21.7058 15.9026 21.3643 16 21 16H20.6056C20.2107 16 19.8247 15.8831 19.4962 15.6641L17 14ZM3 14V15" stroke="black" stroke-width="2" stroke-linecap="round" stroke-linejoin="round"/>
</svg>
