<svg width="24" height="24" viewBox="0 0 24 24" fill="none" xmlns="http://www.w3.org/2000/svg">
<path d="M21 11V9C21 7.89543 20.1046 7 19 7H13.0704C12.4017 7 11.7772 6.6658 11.4063 6.1094L10.5937 4.8906C10.2228 4.3342 9.59834 4 8.92963 4H5C3.89543 4 3 4.89543 3 6V11M1.54086 13.4339L2.65197 18.4339C2.85532 19.3489 3.66695 20 4.60434 20H19.3957C20.3331 20 21.1447 19.3489 21.348 18.4339L22.4591 13.4339C22.7367 12.1848 21.7863 11 20.5068 11H3.49323C2.21374 11 1.2633 12.1848 1.54086 13.4339Z" stroke="black" stroke-width="2" stroke-linecap="round" stroke-linejoin="round"/>
</svg>
