<svg width="24" height="24" viewBox="0 0 24 24" fill="none" xmlns="http://www.w3.org/2000/svg">
<path d="M7 7C8.10457 7 9 6.10457 9 5C9 3.89543 8.10457 3 7 3C5.89543 3 5 3.89543 5 5C5 6.10457 5.89543 7 7 7ZM7 7V13M9 15C9 16.1046 8.10457 17 7 17M9 15C9 13.8954 8.10457 13 7 13M9 15V15C13.4183 15 17 11.4183 17 7V7M7 17C5.89543 17 5 16.1046 5 15C5 13.8954 5.89543 13 7 13M7 17V21M17 7C18.1046 7 19 6.10457 19 5C19 3.89543 18.1046 3 17 3C15.8954 3 15 3.89543 15 5C15 6.10457 15.8954 7 17 7Z" stroke="black" stroke-width="2" stroke-linecap="round" stroke-linejoin="round"/>
</svg>
