<svg width="24" height="24" viewBox="0 0 24 24" fill="none" xmlns="http://www.w3.org/2000/svg">
<circle cx="12" cy="12" r="10" stroke="black" stroke-width="2" stroke-linecap="round" stroke-linejoin="round"/>
<path d="M20.5 7H14C12.8954 7 12 7.89543 12 9V9C12 10.1046 12.8954 11 14 11H17C18.1046 11 19 11.8954 19 13V13C19 14.1046 18.1046 15 17 15V15C15.8954 15 15 15.8954 15 17V17C15 18.1046 15.8954 19 17 19H19M2.5 13H6C7.10457 13 8 13.8954 8 15V15C8 16.1046 7.10457 17 6 17H4M3 8H6C7.10457 8 8 7.10457 8 6V6C8 4.89543 7.10457 4 6 4V4" stroke="black" stroke-width="2" stroke-linecap="round" stroke-linejoin="round"/>
</svg>
