<svg width="24" height="24" viewBox="0 0 24 24" fill="none" xmlns="http://www.w3.org/2000/svg">
<path d="M5 2H4C2.89543 2 2 2.89543 2 4V5M19 2H20C21.1046 2 22 2.89543 22 4V5M19 22H20C21.1046 22 22 21.1046 22 20V19M2 19V20C2 21.1046 2.89543 22 4 22H5M9 2H15M2 9V15M22 9V15M15 22H9" stroke="black" stroke-width="2" stroke-linecap="round" stroke-linejoin="round"/>
<rect x="6" y="6" width="12" height="4" stroke="black" stroke-width="2" stroke-linecap="round" stroke-linejoin="round"/>
<rect x="6" y="14" width="12" height="4" stroke="black" stroke-width="2" stroke-linecap="round" stroke-linejoin="round"/>
</svg>
