<svg width="24" height="24" viewBox="0 0 24 24" fill="none" xmlns="http://www.w3.org/2000/svg">
<path d="M12 5C4.52162 5 1.87637 9.83312 1.19567 11.4674C1.05207 11.8122 1.05321 12.191 1.19695 12.5357C1.45787 13.1614 2.00561 14.253 3 15.363M20 2L16.9228 5.84644M4 22L7.07715 18.1536M13.3333 10.3333L13.5858 10.5858C14.3668 11.3668 14.3668 12.6332 13.5858 13.4142L13.3333 13.6667C12.597 14.403 11.403 14.403 10.6667 13.6667V13.6667M13.3333 10.3333L10.6667 13.6667M13.3333 10.3333L16.9228 5.84644M10.6667 13.6667L7.07715 18.1536M7.07715 18.1536C8.42231 18.6701 10.0462 19 12 19C19.4784 19 22.1236 14.1669 22.8043 12.5326C22.9479 12.1878 22.9469 11.8092 22.8031 11.4645C22.2989 10.2553 20.7234 7.30587 16.9228 5.84644" stroke="black" stroke-width="2" stroke-linecap="round" stroke-linejoin="round"/>
</svg>
