<svg width="24" height="24" viewBox="0 0 24 24" fill="none" xmlns="http://www.w3.org/2000/svg">
<path d="M21 21V23M21 21H23M21 21V19M21 21H19M2 16V19C2 20.1046 2.89543 21 4 21H15M2 16V5C2 3.89543 2.89543 3 4 3H19C20.1046 3 21 3.89543 21 5V13M2 16L6.22058 12.4829C7.26882 11.6093 8.7745 11.5532 9.88484 12.3463L13.5302 14.9501C14.4344 15.596 15.6216 15.6892 16.6156 15.1922L21 13M21 13V15" stroke="black" stroke-width="2" stroke-linecap="round" stroke-linejoin="round"/>
<circle cx="16" cy="8" r="2" fill="black"/>
</svg>
