<svg width="24" height="24" viewBox="0 0 24 24" fill="none" xmlns="http://www.w3.org/2000/svg">
<path d="M1 17V20C1 21.1046 1.89543 22 3 22H17C18.1046 22 19 21.1046 19 20V18M1 17V8C1 6.89543 1.89543 6 3 6H5M1 17L4.20297 13.797C5.23996 12.76 6.87465 12.6248 8.06801 13.4771L11.5302 15.9501C12.4344 16.596 13.6216 16.6892 14.6156 16.1922L19 14M19 14V18M19 14V12M5 6H17C18.1046 6 19 6.89543 19 8V12M5 6V4C5 2.89543 5.89543 2 7 2H21C22.1046 2 23 2.89543 23 4V10M19 18H21C22.1046 18 23 17.1046 23 16V10M23 10L19 12" stroke="black" stroke-width="2" stroke-linecap="round" stroke-linejoin="round"/>
<circle cx="14" cy="11" r="2" fill="black"/>
</svg>
