<svg width="24" height="24" viewBox="0 0 24 24" fill="none" xmlns="http://www.w3.org/2000/svg">
<path d="M17 18L21 22M7 18L3 22M3 9.79998L5 11.4M21 9.79998L19 11.4M12 9.99999H10M12 9.99999V12M12 9.99999H14M12 9.99999V7.99999M19 11.4L12 17L5 11.4M19 11.4V6.59999M5 11.4V6.59999M8.24999 4H15.75M8.24999 4H7C5.89543 4 5 4.89543 5 6V6.59999M8.24999 4L12 1L15.75 4M5 6.59999L2.75061 8.3995C2.27618 8.77904 2 9.35367 2 9.96124V21C2 22.1046 2.89543 23 4 23H20C21.1046 23 22 22.1046 22 21V9.96124C22 9.35367 21.7238 8.77904 21.2494 8.3995L19 6.59999M19 6.59999V6C19 4.89543 18.1046 4 17 4H15.75" stroke="black" stroke-width="2" stroke-linecap="round" stroke-linejoin="round"/>
</svg>
