<svg width="24" height="24" viewBox="0 0 24 24" fill="none" xmlns="http://www.w3.org/2000/svg">
<path d="M1 18L2.25 15M11 18L9.75 15M2.25 15L5.07692 8.21538C5.4188 7.39487 6.5812 7.39487 6.92308 8.21538L9.75 15M2.25 15H9.75" stroke="black" stroke-width="2" stroke-linecap="round" stroke-linejoin="round"/>
<path d="M15 9H16H19M23 9H22M19 9V7M19 9H22M22 9C21.8113 12.0104 21.2187 13.9494 19.5277 15.4812M15 18C17.0324 17.2114 18.4877 16.4233 19.5277 15.4812M23 18C21.5431 17.2073 20.4343 16.414 19.5277 15.4812M19.5277 15.4812C18.8259 14.7592 18.2452 13.9535 17.7182 13" stroke="black" stroke-width="2" stroke-linecap="round" stroke-linejoin="round"/>
</svg>
