<svg width="27" height="25" viewBox="0 0 27 25" fill="none" xmlns="http://www.w3.org/2000/svg">
<circle cx="12" cy="18" r="1" fill="black"/>
<path d="M11.9953 14C11.47 14 10.9499 14.1035 10.4646 14.3045C10.0566 14.4735 9.67991 14.7087 9.34956 15M20 9.05994C18.9929 8.15818 17.8394 7.43199 16.5875 6.91344C15.1316 6.31039 13.5712 6 11.9953 6C10.4194 6 8.85901 6.31039 7.4031 6.91345C6.15124 7.43199 4.99773 8.15818 3.9906 9.05994M6.7038 12C7.36451 11.4173 8.11783 10.947 8.93384 10.609C9.90444 10.2069 10.9447 10 11.9953 10C12.6731 10 13.3467 10.0861 14 10.2552C14.3395 10.3431 14.6736 10.4534 15 10.5857" stroke="black" stroke-width="2" stroke-linecap="round" stroke-linejoin="round"/>
<path d="M16.1716 19.8284C17.7337 21.3905 20.2663 21.3905 21.8284 19.8284C23.3905 18.2663 23.3905 15.7337 21.8284 14.1716M16.1716 19.8284C14.6095 18.2663 14.6095 15.7337 16.1716 14.1716C17.7337 12.6095 20.2663 12.6095 21.8284 14.1716M16.1716 19.8284L21.8284 14.1716" stroke="black" stroke-width="2" stroke-linecap="round" stroke-linejoin="round"/>
</svg>
