<svg width="24" height="24" viewBox="0 0 24 24" fill="none" xmlns="http://www.w3.org/2000/svg">
<circle cx="12" cy="18" r="1" fill="black"/>
<path d="M12.0001 6C10.4242 6 8.86376 6.3104 7.40785 6.91345C6.15791 7.43119 5.00603 8.15595 4 9.05579M6.70855 12C7.36926 11.4173 8.12258 10.947 8.93859 10.609C8.95903 10.6005 8.9795 10.5921 9 10.5838M14.6458 15C14.3155 14.7087 13.9388 14.4735 13.5308 14.3045C13.0455 14.1035 12.5253 14 12.0001 14C11.4748 14 10.9546 14.1035 10.4693 14.3045C10.2882 14.3795 10.1132 14.4676 9.94574 14.5678M17.2916 12C16.6308 11.4173 15.8775 10.9469 15.0615 10.6089C14.5534 10.3985 14.0261 10.2415 13.4883 10.1396M20.0001 9.05579C18.9941 8.15595 17.8422 7.4312 16.5923 6.91345C16.4605 6.85887 16.3279 6.80669 16.1945 6.75692M9.94574 14.5678L13.4883 10.1396M9.94574 14.5678L7.2 18L7 18.25L6.4 19M13.4883 10.1396L16.1945 6.75692M16.1945 6.75692L18.4 4L19 3.25" stroke="black" stroke-width="2" stroke-linecap="round" stroke-linejoin="round"/>
</svg>
