<svg width="24" height="24" viewBox="0 0 24 24" fill="none" xmlns="http://www.w3.org/2000/svg">
<circle cx="12" cy="18" r="1" fill="black"/>
<path d="M4 9.05579C5.00603 8.15595 6.15791 7.43119 7.40785 6.91345C8.86376 6.3104 10.4242 6 12.0001 6C13.5759 6 15.1363 6.3104 16.5923 6.91345C17.8422 7.43119 18.9941 8.15595 20.0001 9.05579M6.70855 12C7.36926 11.4173 8.12258 10.947 8.93859 10.609C9.90919 10.2069 10.9495 10 12.0001 10C13.0506 10 14.0909 10.2069 15.0615 10.6089C15.8775 10.9469 16.6308 11.4173 17.2916 12M9.3543 15C9.68466 14.7087 10.0613 14.4735 10.4693 14.3045C10.9546 14.1035 11.4748 14 12.0001 14C12.5253 14 13.0455 14.1035 13.5308 14.3045C13.9388 14.4735 14.3155 14.7087 14.6458 15" stroke="black" stroke-width="2" stroke-linecap="round" stroke-linejoin="round"/>
</svg>
