<svg width="24" height="24" viewBox="0 0 24 24" fill="none" xmlns="http://www.w3.org/2000/svg">
<path d="M21 3L14 10M21 3H17M21 3V7M13 3H9C7.89543 3 7 3.89543 7 5V15C7 16.1046 7.89543 17 9 17H19C20.1046 17 21 16.1046 21 15V11" stroke="black" stroke-width="2" stroke-linecap="round" stroke-linejoin="round"/>
<path d="M7 7H5C3.89543 7 3 7.89543 3 9V19C3 20.1046 3.89543 21 5 21H15C16.1046 21 17 20.1046 17 19V17" stroke="black" stroke-width="2" stroke-linecap="round" stroke-linejoin="round"/>
</svg>
