<svg width="24" height="24" viewBox="0 0 24 24" fill="none" xmlns="http://www.w3.org/2000/svg">
<path d="M19 8.12399C17.6353 5.66457 15.012 4 12 4C7.58172 4 4 7.58172 4 12C4 13.4063 4.36284 14.7278 5 15.876M8.12399 19C9.27224 19.6372 10.5937 20 12 20C14.5264 20 16.7792 18.8289 18.2454 17C19.2389 15.7607 19.8711 14.2192 19.9824 12.5355" stroke="black" stroke-width="2" stroke-linecap="round" stroke-linejoin="round"/>
<path d="M16 4.98997C19.091 4.2525 21.553 4.54627 22.3923 6C23.773 8.39146 20.2395 13.0164 14.5 16.3301C8.76049 19.6438 2.98841 20.3915 1.60769 18C0.759358 16.5306 1.76619 14.2181 4.00003 11.8846" stroke="black" stroke-width="2" stroke-linecap="round" stroke-linejoin="round"/>
</svg>
