<svg width="24" height="24" viewBox="0 0 24 24" fill="none" xmlns="http://www.w3.org/2000/svg">
<path d="M19.7187 14.7942L13.7732 3.39858C13.0254 1.96542 10.9746 1.96542 10.2268 3.39857L4.28131 14.7942C3.10065 17.0571 5.67112 19.4264 7.83057 18.0657L10.9338 16.1102C11.5853 15.6997 12.4147 15.6997 13.0662 16.1102L16.1694 18.0657C18.3289 19.4264 20.8994 17.0571 19.7187 14.7942Z" stroke="black" stroke-width="2" stroke-linecap="round" stroke-linejoin="round"/>
<path d="M14 21C14 22.1046 12 24 12 24C12 24 10 22.1046 10 21C10 19.8954 10.8954 19 12 19C13.1046 19 14 19.8954 14 21Z" fill="black"/>
<circle cx="12" cy="10" r="2" fill="black"/>
</svg>
