<svg width="24" height="24" viewBox="0 0 24 24" fill="none" xmlns="http://www.w3.org/2000/svg">
<circle cx="12" cy="12" r="3" stroke="black" stroke-width="2" stroke-linecap="round" stroke-linejoin="round"/>
<path d="M4.90036 4.95759L5.12507 3.98316C4.78776 3.90537 4.43421 4.00757 4.19042 4.25333L4.90036 4.95759ZM6.58354 5.34574L6.35883 6.32016L6.35883 6.32016L6.58354 5.34574ZM8.94542 3.9821L9.90165 4.27471L9.90165 4.27471L8.94542 3.9821ZM9.4517 2.3276L9.19758 1.36042C8.86249 1.44847 8.59685 1.70369 8.49547 2.03499L9.4517 2.3276ZM14.5482 2.3276L15.5045 2.03499C15.4031 1.70369 15.1374 1.44847 14.8024 1.36042L14.5482 2.3276ZM15.0545 3.9821L16.0107 3.68949L16.0107 3.68949L15.0545 3.9821ZM17.4164 5.34574L17.1917 4.37131L17.1917 4.37131L17.4164 5.34574ZM19.0996 4.95759L19.8095 4.25333C19.5657 4.00757 19.2122 3.90537 18.8749 3.98316L19.0996 4.95759ZM21.6507 9.37061L22.3822 10.0524C22.6181 9.79931 22.7064 9.44222 22.6157 9.10832L21.6507 9.37061ZM20.4709 10.6364L21.2025 11.3182L21.2025 11.3182L20.4709 10.6364ZM20.4709 13.3636L21.2025 12.6818L21.2025 12.6818L20.4709 13.3636ZM21.6507 14.6294L22.6157 14.8917C22.7064 14.5578 22.6181 14.2007 22.3822 13.9476L21.6507 14.6294ZM19.0996 19.0424L18.8749 20.0168C19.2122 20.0946 19.5657 19.9924 19.8095 19.7467L19.0996 19.0424ZM17.4164 18.6543L17.6411 17.6798L17.6411 17.6798L17.4164 18.6543ZM15.0545 20.0179L16.0107 20.3105L16.0107 20.3105L15.0545 20.0179ZM14.5482 21.6724L14.8024 22.6396C15.1374 22.5515 15.4031 22.2963 15.5045 21.965L14.5482 21.6724ZM9.4517 21.6724L8.49547 21.965C8.59685 22.2963 8.86249 22.5515 9.19758 22.6396L9.4517 21.6724ZM8.94542 20.0179L9.90165 19.7253L9.90165 19.7253L8.94542 20.0179ZM6.58354 18.6543L6.35883 17.6798L6.35883 17.6798L6.58354 18.6543ZM4.90036 19.0424L4.19042 19.7467C4.43421 19.9924 4.78776 20.0946 5.12507 20.0168L4.90036 19.0424ZM2.34924 14.6294L1.61772 13.9476C1.3818 14.2007 1.2935 14.5578 1.38426 14.8917L2.34924 14.6294ZM3.52899 13.3636L2.79747 12.6818L2.79747 12.6818L3.52899 13.3636ZM3.52899 10.6364L2.79747 11.3182L2.79747 11.3182L3.52899 10.6364ZM2.34924 9.37061L1.38426 9.10832C1.2935 9.44222 1.3818 9.79931 1.61772 10.0524L2.34924 9.37061ZM4.67565 5.93201L6.35883 6.32016L6.80825 4.37131L5.12507 3.98316L4.67565 5.93201ZM6.35883 6.32016C7.89362 6.67409 9.44077 5.78084 9.90165 4.27471L7.98919 3.68949C7.83556 4.19154 7.31984 4.48929 6.80825 4.37131L6.35883 6.32016ZM9.90165 4.27471L10.4079 2.6202L8.49547 2.03499L7.98919 3.68949L9.90165 4.27471ZM9.70582 3.29477C10.4372 3.10261 11.2058 3 12 3V1C11.0328 1 10.0934 1.12506 9.19758 1.36042L9.70582 3.29477ZM12 3C12.7941 3 13.5628 3.10261 14.2941 3.29477L14.8024 1.36042C13.9066 1.12506 12.9671 1 12 1V3ZM13.592 2.6202L14.0983 4.27471L16.0107 3.68949L15.5045 2.03499L13.592 2.6202ZM14.0983 4.27471C14.5592 5.78084 16.1063 6.67409 17.6411 6.32016L17.1917 4.37131C16.6801 4.48929 16.1644 4.19154 16.0107 3.68949L14.0983 4.27471ZM17.6411 6.32016L19.3243 5.93201L18.8749 3.98316L17.1917 4.37131L17.6411 6.32016ZM18.3896 5.66184C19.4697 6.75063 20.2724 8.11246 20.6857 9.63291L22.6157 9.10832C22.1095 7.24613 21.1273 5.58177 19.8095 4.25333L18.3896 5.66184ZM20.9192 8.6888L19.7394 9.95455L21.2025 11.3182L22.3822 10.0524L20.9192 8.6888ZM19.7394 9.95455C18.6655 11.1067 18.6655 12.8933 19.7394 14.0454L21.2025 12.6818C20.8445 12.2978 20.8445 11.7022 21.2025 11.3182L19.7394 9.95455ZM19.7394 14.0454L20.9192 15.3112L22.3822 13.9476L21.2025 12.6818L19.7394 14.0454ZM20.6857 14.3671C20.2724 15.8875 19.4697 17.2494 18.3896 18.3382L19.8095 19.7467C21.1273 18.4182 22.1095 16.7539 22.6157 14.8917L20.6857 14.3671ZM19.3243 18.068L17.6411 17.6798L17.1917 19.6287L18.8749 20.0168L19.3243 18.068ZM17.6411 17.6798C16.1063 17.3259 14.5592 18.2192 14.0983 19.7253L16.0107 20.3105C16.1644 19.8085 16.6801 19.5107 17.1917 19.6287L17.6411 17.6798ZM14.0983 19.7253L13.592 21.3798L15.5045 21.965L16.0107 20.3105L14.0983 19.7253ZM14.2941 20.7052C13.5628 20.8974 12.7941 21 12 21V23C12.9671 23 13.9066 22.8749 14.8024 22.6396L14.2941 20.7052ZM12 21C11.2058 21 10.4372 20.8974 9.70582 20.7052L9.19758 22.6396C10.0934 22.8749 11.0328 23 12 23V21ZM10.4079 21.3798L9.90165 19.7253L7.98919 20.3105L8.49547 21.965L10.4079 21.3798ZM9.90165 19.7253C9.44077 18.2192 7.89361 17.3259 6.35883 17.6798L6.80824 19.6287C7.31984 19.5107 7.83556 19.8085 7.98919 20.3105L9.90165 19.7253ZM6.35883 17.6798L4.67565 18.068L5.12507 20.0168L6.80825 19.6287L6.35883 17.6798ZM5.6103 18.3382C4.53023 17.2494 3.72751 15.8875 3.31423 14.3671L1.38426 14.8917C1.89042 16.7539 2.87261 18.4182 4.19042 19.7467L5.6103 18.3382ZM3.08077 15.3112L4.26051 14.0454L2.79747 12.6818L1.61772 13.9476L3.08077 15.3112ZM4.26051 14.0454C5.33442 12.8933 5.33442 11.1067 4.26051 9.95455L2.79747 11.3182C3.15544 11.7022 3.15544 12.2978 2.79747 12.6818L4.26051 14.0454ZM4.26051 9.95455L3.08077 8.6888L1.61772 10.0524L2.79747 11.3182L4.26051 9.95455ZM3.31423 9.63291C3.72751 8.11246 4.53023 6.75063 5.6103 5.66184L4.19042 4.25333C2.87261 5.58177 1.89042 7.24612 1.38426 9.10832L3.31423 9.63291Z" fill="black"/>
</svg>
