<svg width="24" height="24" viewBox="0 0 24 24" fill="none" xmlns="http://www.w3.org/2000/svg">
<circle cx="12" cy="12" r="3" stroke="black" stroke-width="2" stroke-linecap="round" stroke-linejoin="round"/>
<path d="M4.22183 19.7782L3.51472 20.4853L3.51472 20.4853L4.22183 19.7782ZM21 9C20.4477 9 20 9.44772 20 10C20 10.5523 20.4477 11 21 11V9ZM19.7782 4.22183L19.0711 4.92893L19.0711 4.92893L19.7782 4.22183ZM11 3C11 2.44772 11.4477 2 12 2V0C10.3431 0 9 1.34314 9 3H11ZM4.92893 4.92893C5.31946 4.53841 5.95262 4.53841 6.34315 4.92893L7.75736 3.51472C6.58579 2.34315 4.68629 2.34315 3.51472 3.51472L4.92893 4.92893ZM4.92893 6.34315C4.53841 5.95262 4.53841 5.31946 4.92893 4.92893L3.51472 3.51472C2.34315 4.68629 2.34315 6.58579 3.51472 7.75736L4.92893 6.34315ZM2 12C2 11.4477 2.44772 11 3 11V9C1.34315 9 0 10.3431 0 12H2ZM3 13C2.44772 13 2 12.5523 2 12H0C0 13.6569 1.34314 15 3 15V13ZM4.92893 19.0711C4.53841 18.6805 4.53841 18.0474 4.92893 17.6569L3.51472 16.2426C2.34315 17.4142 2.34315 19.3137 3.51472 20.4853L4.92893 19.0711ZM6.34315 19.0711C5.95262 19.4616 5.31946 19.4616 4.92893 19.0711L3.51472 20.4853C4.68629 21.6569 6.58579 21.6569 7.75736 20.4853L6.34315 19.0711ZM12 22C11.4477 22 11 21.5523 11 21H9C9 22.6569 10.3431 24 12 24V22ZM13 21C13 21.5523 12.5523 22 12 22V24C13.6569 24 15 22.6569 15 21H13ZM19.0711 19.0711C18.6805 19.4616 18.0474 19.4616 17.6569 19.0711L16.2426 20.4853C17.4142 21.6569 19.3137 21.6569 20.4853 20.4853L19.0711 19.0711ZM19.0711 17.6569C19.4616 18.0474 19.4616 18.6805 19.0711 19.0711L20.4853 20.4853C21.6569 19.3137 21.6569 17.4142 20.4853 16.2426L19.0711 17.6569ZM22 12C22 12.5523 21.5523 13 21 13V15C22.6569 15 24 13.6569 24 12H22ZM21 11C21.5523 11 22 11.4477 22 12H24C24 10.3431 22.6569 9 21 9V11ZM19.0711 4.92893C19.4616 5.31946 19.4616 5.95262 19.0711 6.34315L20.4853 7.75736C21.6569 6.58579 21.6569 4.68629 20.4853 3.51472L19.0711 4.92893ZM17.6569 4.92893C18.0474 4.53841 18.6805 4.53841 19.0711 4.92893L20.4853 3.51472C19.3137 2.34315 17.4142 2.34315 16.2426 3.51472L17.6569 4.92893ZM12 2C12.5523 2 13 2.44772 13 3H15C15 1.34315 13.6569 0 12 0V2ZM16.2426 3.51472C15.7841 3.97329 15 3.64851 15 3H13C13 5.43032 15.9384 6.64743 17.6569 4.92893L16.2426 3.51472ZM21 9C20.3515 9 20.0267 8.21592 20.4853 7.75736L19.0711 6.34315C17.3526 8.06164 18.5697 11 21 11V9ZM20.4853 16.2426C20.0267 15.7841 20.3515 15 21 15V13C18.5697 13 17.3526 15.9384 19.0711 17.6569L20.4853 16.2426ZM15 21C15 20.3515 15.7841 20.0267 16.2426 20.4853L17.6569 19.0711C15.9384 17.3526 13 18.5697 13 21H15ZM7.75736 20.4853C8.21592 20.0267 9 20.3515 9 21H11C11 18.5697 8.06164 17.3526 6.34315 19.0711L7.75736 20.4853ZM3 15C3.64851 15 3.97328 15.7841 3.51472 16.2426L4.92893 17.6569C6.64743 15.9384 5.43032 13 3 13V15ZM3.51472 7.75736C3.97328 8.21592 3.64851 9 3 9V11C5.43032 11 6.64743 8.06164 4.92893 6.34315L3.51472 7.75736ZM9 3C9 3.64851 8.21592 3.97328 7.75736 3.51472L6.34315 4.92893C8.06164 6.64743 11 5.43032 11 3H9Z" fill="black"/>
</svg>
