<svg width="24" height="24" viewBox="0 0 24 24" fill="none" xmlns="http://www.w3.org/2000/svg">
<path d="M4 12H20" stroke="black" stroke-width="2" stroke-linecap="round" stroke-linejoin="round"/>
<path d="M16 6.17649C15.7788 5.40384 15.3311 4.70454 14.7075 4.15773C14.0838 3.61091 13.3092 3.23841 12.4711 3.08235C11.6331 2.92629 10.7651 2.99292 9.9654 3.27469C9.1657 3.55646 8.4662 4.04212 7.94603 4.67674C7.42586 5.31135 7.1058 6.06958 7.02205 6.86564C6.94528 7.5953 7.06986 8.33005 7.38219 9" stroke="black" stroke-width="2" stroke-linecap="round" stroke-linejoin="round"/>
<path d="M8 17.8235C8.22115 18.5962 8.66888 19.2955 9.29252 19.8423C9.91616 20.3891 10.6908 20.7616 11.5289 20.9176C12.3669 21.0737 13.2349 21.0071 14.0346 20.7253C14.8343 20.4435 15.5338 19.9579 16.054 19.3233C16.5741 18.6887 16.8942 17.9304 16.978 17.1344C17.0547 16.4047 16.9301 15.67 16.6178 15" stroke="black" stroke-width="2" stroke-linecap="round" stroke-linejoin="round"/>
</svg>
