<svg width="24" height="24" viewBox="0 0 24 24" fill="none" xmlns="http://www.w3.org/2000/svg">
<circle cx="9" cy="10" r="4" stroke="black" stroke-width="2" stroke-linecap="round" stroke-linejoin="round"/>
<path d="M13 3.53513C13.5883 3.19479 14.2714 3 15 3C17.2091 3 19 4.79086 19 7C19 8.48056 18.1956 9.77325 17 10.4649" stroke="black" stroke-width="2" stroke-linecap="round" stroke-linejoin="round"/>
<path d="M12.5 17H12.5179C13.2293 17 13.8871 17.3778 14.2455 17.9923V17.9923C15.0232 19.3256 14.0615 21 12.5179 21H5.48207C3.93849 21 2.97675 19.3256 3.75452 17.9923V17.9923C4.11294 17.3778 4.77074 17 5.48207 17H5.5" stroke="black" stroke-width="2" stroke-linecap="round" stroke-linejoin="round"/>
<path d="M18.5 14H18.5179C19.2293 14 19.8871 14.3778 20.2455 14.9923V14.9923C21.0232 16.3256 20.0615 18 18.5179 18H18" stroke="black" stroke-width="2" stroke-linecap="round" stroke-linejoin="round"/>
</svg>
