<svg width="24" height="24" viewBox="0 0 24 24" fill="none" xmlns="http://www.w3.org/2000/svg">
<path d="M9 6H6.62132C5.28496 6 4.61571 7.61571 5.56066 8.56066V8.56066C5.84196 8.84196 6 9.2235 6 9.62132V18C6 19.6569 7.34315 21 9 21H15C16.6569 21 18 19.6569 18 18V9.62132C18 9.2235 18.158 8.84196 18.4393 8.56066V8.56066C19.3843 7.61571 18.715 6 17.3787 6H15M9 6H15M9 6L9.54415 4.36754C9.81638 3.55086 10.5807 3 11.4415 3H12.5585C13.4193 3 14.1836 3.55086 14.4558 4.36754L15 6M10 10V17M14 10V17" stroke="black" stroke-width="2" stroke-linecap="round" stroke-linejoin="round"/>
</svg>
