<svg width="24" height="24" viewBox="0 0 24 24" fill="none" xmlns="http://www.w3.org/2000/svg">
<path d="M5 3H4C2.89543 3 2 3.89543 2 5V19C2 20.1046 2.89543 21 4 21H5M19 3H20C21.1046 3 22 3.89543 22 5V19C22 20.1046 21.1046 21 20 21H19M9 3H10M14 3H15M9 21H10M14 21H15" stroke="black" stroke-width="2" stroke-linecap="round" stroke-linejoin="round"/>
<path d="M15.6432 11.152C16.2699 11.5437 16.2699 12.4563 15.6432 12.848L10.53 16.0438C9.86395 16.46 9 15.9812 9 15.1958L9 8.80425C9 8.01881 9.86395 7.53997 10.53 7.95625L15.6432 11.152Z" stroke="black" stroke-width="2" stroke-linecap="round" stroke-linejoin="round"/>
</svg>
