<svg width="24" height="24" viewBox="0 0 24 24" fill="none" xmlns="http://www.w3.org/2000/svg">
<path d="M17.7164 3.56239C15.5708 2.53739 12.923 2.9135 11.1458 4.69072C9.36854 6.46794 8.99243 9.11571 10.0174 11.2614L3.69632 16.5004C2.82359 17.2237 2.76207 18.5409 3.56359 19.3424L4.65756 20.4364C5.45907 21.2379 6.77629 21.1764 7.49961 20.3037L12.7386 13.9826C14.8843 15.0076 17.5321 14.6315 19.3093 12.8542C21.0865 11.077 21.4626 8.42925 20.4376 6.28357L17.2684 9.45277C16.517 10.2042 15.2987 10.2042 14.5472 9.45277C13.7958 8.70134 13.7958 7.48303 14.5472 6.7316L17.7164 3.56239Z" stroke="black" stroke-width="2" stroke-linecap="round" stroke-linejoin="round"/>
</svg>
